<svg xmlns="http://www.w3.org/2000/svg" xmlns:serif="http://www.serif.com/" fill-rule="evenodd" stroke-linejoin="round" stroke-miterlimit="2" clip-rule="evenodd" viewBox="0 0 636 227"><g fill-rule="nonzero" serif:id="Layer 1"><path fill="#0e6938" d="M291.078 137.199h-13.43c-3.837 0-6.972-1.211-9.401-3.646-2.435-2.428-3.645-5.564-3.645-9.4V71.968c0-6.14-1.858-10.612-5.564-13.43-3.711-2.812-7.866-4.22-12.47-4.22-4.605 0-8.7 1.408-12.28 4.22-3.584 2.818-5.371 7.29-5.371 13.43v65.231h-26.86V77.34c0-17.393 4.539-29.03 13.622-34.918 9.077-5.881 19.119-9.077 30.121-9.592 11.253 0 21.613 2.943 31.081 8.825 9.46 5.887 14.197 17.782 14.197 35.685v59.859zM394.142 35.132v59.859c0 18.166-4.736 30.06-14.197 35.684-9.468 5.63-19.828 8.442-31.081 8.442-11.002-.516-21.044-3.579-30.121-9.209-9.083-5.624-13.622-17.267-13.622-34.917V35.132h26.86v65.231c0 6.139 1.787 10.617 5.371 13.43 3.58 2.817 7.675 4.22 12.28 4.22 4.604 0 8.759-1.403 12.47-4.22 3.706-2.813 5.564-7.291 5.564-13.43V48.178c0-3.579 1.21-6.649 3.645-9.21 2.429-2.553 5.565-3.836 9.401-3.836h13.43zM408.186 137.199V87.7c0-9.977 1.469-18.352 4.413-25.133 2.938-6.775 6.966-12.213 12.087-16.307 4.856-3.838 10.551-6.649 17.075-8.442 6.522-1.786 13.237-2.686 20.145-2.686h3.836v27.243h-8.825c-7.422 0-12.92 1.793-16.5 5.372-3.584 3.585-5.371 9.209-5.371 16.884v52.568h-26.86zM568.807 35.132v59.859c0 18.166-4.736 30.06-14.196 35.684-9.469 5.63-19.829 8.442-31.082 8.442-11.002-.516-21.044-3.579-30.121-9.209-9.083-5.624-13.621-17.267-13.621-34.917V35.132h26.859v65.231c0 6.139 1.787 10.617 5.371 13.43 3.58 2.817 7.675 4.22 12.28 4.22 4.604 0 8.759-1.403 12.47-4.22 3.706-2.813 5.564-7.291 5.564-13.43V48.178c0-3.579 1.21-6.649 3.645-9.21 2.429-2.553 5.565-3.836 9.401-3.836h13.43zM93.386 31.141a5.22 5.22 0 1 1-10.439-.001 5.22 5.22 0 0 1 10.439.001M100.353 41.4a4.352 4.352 0 1 1-8.704 0 4.352 4.352 0 0 1 8.704 0M72.092 73.473a4.352 4.352 0 1 1-8.704 0 4.352 4.352 0 0 1 8.704 0M141.03 3.387a3.386 3.386 0 1 1-6.773.001 3.386 3.386 0 0 1 6.773-.001M121.872 7.1a3.387 3.387 0 1 1-6.774 0 3.387 3.387 0 0 1 6.774 0M44.809 71.864a5.22 5.22 0 1 1-10.44 0 5.22 5.22 0 0 1 10.44 0M58.601 113.365a5.22 5.22 0 1 1-10.44 0 5.22 5.22 0 0 1 10.44 0M136.604 143.737a4.703 4.703 0 1 1-9.407-.001 4.703 4.703 0 0 1 9.407.001M120.195 135.72a3.908 3.908 0 1 1-7.817 0 3.908 3.908 0 0 1 7.817 0M114.434 142.58a2.656 2.656 0 1 1-5.312 0 2.656 2.656 0 0 1 5.312 0M103.01 140.328a2.656 2.656 0 1 1-5.312 0 2.656 2.656 0 0 1 5.312 0M80.801 78.76a2.656 2.656 0 1 1-5.312 0 2.656 2.656 0 0 1 5.312 0M63.85 62.678a2.316 2.316 0 1 1-4.631-.001 2.316 2.316 0 0 1 4.631.001M62.34 70.045a2.315 2.315 0 1 1-4.63 0 2.315 2.315 0 0 1 4.63 0M87.884 44.145a2.315 2.315 0 1 1-4.63 0 2.315 2.315 0 0 1 4.63 0M55.865 40.03a2.315 2.315 0 1 1-4.63 0 2.315 2.315 0 0 1 4.63 0M78.718 92.493a2.316 2.316 0 1 1-4.631-.001 2.316 2.316 0 0 1 4.631.001M109.934 15.048a2.316 2.316 0 1 1-4.631-.001 2.316 2.316 0 0 1 4.631.001M99.77 9.173a2.315 2.315 0 1 1-4.63 0 2.315 2.315 0 0 1 4.63 0M125.192 11.659a2.316 2.316 0 1 1-4.631-.001 2.316 2.316 0 0 1 4.631.001M161.244 124.447a2.315 2.315 0 1 1-4.63-.002 2.315 2.315 0 0 1 4.63.002M141.663 148.981a2.315 2.315 0 1 1-4.63 0 2.315 2.315 0 0 1 4.63 0M107.043 148.833a2.316 2.316 0 1 1-4.631-.001 2.316 2.316 0 0 1 4.631.001M95.331 149.872a2.316 2.316 0 1 1-4.631-.001 2.316 2.316 0 0 1 4.631.001M104.955 130.326a2.315 2.315 0 1 1-4.63 0 2.315 2.315 0 0 1 4.63 0M111.064 125.538a1.588 1.588 0 1 1-3.176 0 1.588 1.588 0 0 1 3.176 0M125.843 4.39a1.588 1.588 0 1 1-3.176 0 1.588 1.588 0 0 1 3.176 0M102.267 16.164a1.588 1.588 0 1 1-3.176 0 1.588 1.588 0 0 1 3.176 0M76.148 86.058a1.588 1.588 0 1 1-3.176 0 1.588 1.588 0 0 1 3.176 0M105.885 36.76a1.588 1.588 0 1 1-3.176 0 1.588 1.588 0 0 1 3.176 0M69.778 19.527a1.588 1.588 0 1 1-3.176 0 1.588 1.588 0 0 1 3.176 0M79.881 30.357a1.588 1.588 0 1 1-3.176 0 1.588 1.588 0 0 1 3.176 0M74.514 53.153a1.588 1.588 0 1 1-3.176 0 1.588 1.588 0 0 1 3.176 0M44.946 61.629a1.588 1.588 0 1 1-3.176 0 1.588 1.588 0 0 1 3.176 0M50.637 72.361a1.588 1.588 0 1 1-3.176-.002 1.588 1.588 0 0 1 3.176.002M79.354 72.561a1.587 1.587 0 1 1-3.174 0 1.587 1.587 0 0 1 3.174 0M66.196 104.461a1.588 1.588 0 1 1-3.176 0 1.588 1.588 0 0 1 3.176 0M3.176 103.524a1.588 1.588 0 1 1-3.176 0 1.588 1.588 0 0 1 3.176 0M30.551 102.261a1.588 1.588 0 1 1-3.176 0 1.588 1.588 0 0 1 3.176 0M94.603 14.01a1.587 1.587 0 1 1-3.174 0 1.587 1.587 0 0 1 3.174 0M90.922 126.006a1.587 1.587 0 1 1-3.174.002 1.587 1.587 0 0 1 3.174-.002M94.603 144.104a1.588 1.588 0 1 1-3.176 0 1.588 1.588 0 0 1 3.176 0M100.369 150.02a1.588 1.588 0 1 1-3.176 0 1.588 1.588 0 0 1 3.176 0M140.692 127.493a1.587 1.587 0 1 1-3.174.002 1.587 1.587 0 0 1 3.174-.002M143.22 142.497a1.588 1.588 0 1 1-3.176 0 1.588 1.588 0 0 1 3.176 0M168.934 123.901a1.588 1.588 0 1 1-3.176 0 1.588 1.588 0 0 1 3.176 0M161.126 117.811a1.587 1.587 0 1 1-3.174.002 1.587 1.587 0 0 1 3.174-.002M105.314 120.127a2.315 2.315 0 1 1-4.63 0 2.315 2.315 0 0 1 4.63 0M94.841 110.483a2.316 2.316 0 1 1-4.631-.001 2.316 2.316 0 0 1 4.631.001M110.203 105.406a2.316 2.316 0 1 1-4.631-.001 2.316 2.316 0 0 1 4.631.001M53.679 81.281a2.315 2.315 0 1 1-4.63-.002 2.315 2.315 0 0 1 4.63.002M44.081 82.404a2.314 2.314 0 1 1-4.629.001 2.314 2.314 0 0 1 4.629-.001M37.962 101.51a2.316 2.316 0 1 1-4.631-.001 2.316 2.316 0 0 1 4.631.001M10.606 100.668a2.944 2.944 0 1 1-5.889.001 2.944 2.944 0 0 1 5.889-.001M54.11 60.311a2.945 2.945 0 1 1-5.89 0 2.945 2.945 0 0 1 5.89 0M173.852 31.278a2.456 2.456 0 1 1-4.911-.001 2.456 2.456 0 0 1 4.911.001M107.759 29.306a2.455 2.455 0 1 1-4.91 0 2.455 2.455 0 0 1 4.91 0M98.286 20.168a2.455 2.455 0 1 1-4.91 0 2.455 2.455 0 0 1 4.91 0M162.308 12.719a2.456 2.456 0 1 1-4.911 0 2.456 2.456 0 0 1 4.911 0M86.318 13.977a2.455 2.455 0 1 1-4.91 0 2.455 2.455 0 0 1 4.91 0M76.884 11.66a2.455 2.455 0 1 1-4.91 0 2.455 2.455 0 0 1 4.91 0M159.699 169.492a2.455 2.455 0 1 1-4.91 0 2.455 2.455 0 0 1 4.91 0M129.761 120.127a5.22 5.22 0 1 1-10.44 0 5.22 5.22 0 0 1 10.44 0M99.554 124.108a3.386 3.386 0 1 1-6.773.001 3.386 3.386 0 0 1 6.773-.001"/><path fill="#0e6938" d="M84.168 66.106c-.791 0-1.487.398-1.905 1.003l-4.407-1.979a5.19 5.19 0 0 0 .29-1.703 5.22 5.22 0 0 0-5.22-5.219 5.198 5.198 0 0 0-3.792 1.64l-8.679-6.976a5.219 5.219 0 1 0-9.534-2.937 5.22 5.22 0 0 0 5.219 5.22 5.201 5.201 0 0 0 3.789-1.636l8.679 6.976a5.219 5.219 0 0 0 8.917 5.401l4.401 1.976a2.257 2.257 0 0 0-.073.549 2.315 2.315 0 1 0 2.315-2.315M165.503 115.065c-.402 0-.776.105-1.111.276l-1.446-1.929a3.594 3.594 0 0 0 1.176-2.654 3.617 3.617 0 1 0-7.234 0 3.618 3.618 0 0 0 3.617 3.618 3.58 3.58 0 0 0 1.764-.478l1.453 1.94a2.443 2.443 0 0 0-.674 1.682 2.455 2.455 0 1 0 2.455-2.455M164.324 16.552a5.22 5.22 0 0 0-4.8 3.168l-2.485-.835a3.388 3.388 0 1 0-3.319 2.712 3.38 3.38 0 0 0 3.043-1.925l2.501.839a5.19 5.19 0 0 0-.16 1.26 5.22 5.22 0 1 0 5.22-5.219M152.788 8.358a2.455 2.455 0 0 0-2.455 2.455c0 .022.005.042.006.063l-4.901.976a2.45 2.45 0 0 0-2.284-1.57c-.983 0-1.825.582-2.218 1.417l-10.121-2.765c.005-.067.02-.131.02-.199a2.456 2.456 0 1 0-2.456 2.456c.996 0 1.849-.596 2.235-1.448l10.108 2.762c-.007.078-.023.152-.023.232a2.455 2.455 0 1 0 4.91 0c0-.023-.006-.045-.007-.068l4.9-.976a2.45 2.45 0 0 0 4.741-.88 2.455 2.455 0 0 0-2.455-2.455M111.922 7.436a2.307 2.307 0 0 0-2.178 1.56l-3.251-.5a2.312 2.312 0 0 0-4.625.055 2.314 2.314 0 0 0 2.315 2.315 2.308 2.308 0 0 0 2.176-1.55l3.254.501a2.312 2.312 0 0 0 4.624-.066 2.315 2.315 0 0 0-2.315-2.315M78.504 19.091l1.063-6.033a1.583 1.583 0 0 0-.142-3.161 1.584 1.584 0 1 0-.672 3.022l-1.063 6.036c-.044-.002-.084-.013-.128-.013-.695 0-1.34.211-1.877.569l-6.241-7.437a5.198 5.198 0 0 0 1.558-3.716 5.22 5.22 0 1 0-7.274 4.798l-1.569 4.719c-.074-.007-.147-.022-.223-.022a2.314 2.314 0 0 0-2.315 2.315c0 .84.451 1.568 1.12 1.974l-1.565 4.706a5.207 5.207 0 0 0-1.244-.155 5.22 5.22 0 1 0 0 10.439 5.222 5.222 0 1 0 2.037-10.027l1.551-4.664c.135.025.273.042.416.042a2.316 2.316 0 0 0 2.315-2.315c0-.908-.528-1.686-1.289-2.065l1.558-4.686c.404.101.826.16 1.262.16a5.192 5.192 0 0 0 3.023-.969l6.256 7.455a3.362 3.362 0 0 0-.886 2.266 3.387 3.387 0 0 0 6.774 0 3.376 3.376 0 0 0-2.445-3.238"/><path fill="#0e6938" d="M71.137 32.536l-.118-3.292a2.312 2.312 0 0 0-.514-4.568 2.315 2.315 0 0 0-2.315 2.315c0 1.17.87 2.127 1.997 2.283l.117 3.29c-4.008.354-7.153 3.715-7.153 7.815a7.85 7.85 0 1 0 15.7 0c0-4.289-3.442-7.769-7.714-7.843M71.543 100.395l-1.498-16.764a2.308 2.308 0 0 0-.638-4.53 2.314 2.314 0 0 0-2.315 2.315c0 1.213.936 2.197 2.124 2.296l1.497 16.755a2.3 2.3 0 0 0-.85.444l-2.812-2.398a5.186 5.186 0 0 0 1.001-3.064 5.22 5.22 0 1 0-1.519 3.678l2.808 2.395a2.295 2.295 0 0 0-.327 1.167 2.316 2.316 0 0 0 4.631 0 2.308 2.308 0 0 0-2.102-2.294M90.211 117.133a2.3 2.3 0 0 0-1.836.92l-9.852-4.981c.061-.208.104-.423.104-.651a2.31 2.31 0 1 0-4.598-.323l-5.312.106a2.316 2.316 0 1 0-2.27 2.764 2.311 2.311 0 0 0 2.277-1.931l5.333-.107a2.315 2.315 0 0 0 2.255 1.807c.752 0 1.414-.365 1.836-.92L88 118.798a2.29 2.29 0 0 0-.104.65 2.315 2.315 0 1 0 2.315-2.315M64.188 116.831a5.216 5.216 0 0 0-5.203 4.888l-6.969.117a2.315 2.315 0 0 0-2.269-1.86c-.501 0-.962.163-1.341.433l-4.716-4.595a3.35 3.35 0 0 0 .741-2.09 3.386 3.386 0 1 0-3.387 3.387c.776 0 1.482-.271 2.054-.711l4.724 4.604a2.315 2.315 0 0 0 1.925 3.601 2.308 2.308 0 0 0 2.276-1.936l6.971-.117a5.218 5.218 0 0 0 10.413-.501 5.22 5.22 0 0 0-5.219-5.22M33.917 82.912a5.22 5.22 0 0 0-5.22 5.22c0 1.414.565 2.694 1.478 3.634l-6.562 7.479a2.298 2.298 0 0 0-1.214-.352 2.3 2.3 0 0 0-1.602.65l-3.172-2.315a3.57 3.57 0 0 0 .487-1.779 3.618 3.618 0 1 0-3.617 3.617c1.057 0 2-.462 2.661-1.185l3.171 2.313c-.151.308-.243.65-.243 1.015a2.316 2.316 0 0 0 4.63 0c0-.53-.185-1.013-.485-1.403l6.573-7.493a5.19 5.19 0 0 0 3.115 1.037 5.22 5.22 0 0 0 0-10.438M135.487 117.212a3.618 3.618 0 0 0-3.618 3.618 3.61 3.61 0 0 0 1.677 3.044l-1.582 3.26a3.353 3.353 0 0 0-1.087-.194 3.38 3.38 0 0 0-3.329 2.81l-3.281-.107a2.309 2.309 0 0 0-2.28-1.96 2.315 2.315 0 1 0 2.265 2.794l3.264.106a3.36 3.36 0 0 0 1.13 2.274l-5.338 7.82a3.57 3.57 0 0 0-1.689-.437 3.617 3.617 0 1 0 3.618 3.618 3.596 3.596 0 0 0-1.242-2.709l5.34-7.823c.464.24.984.388 1.542.388a3.387 3.387 0 0 0 3.387-3.388c0-1.19-.617-2.233-1.547-2.837l1.582-3.258a3.6 3.6 0 0 0 1.188.216 3.617 3.617 0 0 0 0-7.235M149.22 148.413a3.274 3.274 0 0 0 0-6.549c-.166 0-.325.026-.483.049l-1.482-5.212a4.692 4.692 0 0 0 3.051-4.389 4.703 4.703 0 1 0-4.703 4.704c.292 0 .574-.036.85-.086l1.478 5.2a3.272 3.272 0 0 0-.015 6.01l-1.231 4.417c-.144-.02-.286-.043-.435-.043a3.154 3.154 0 1 0 1.241.254l1.229-4.406c.164.026.329.051.5.051"/><path fill="#0e6938" d="M149.22 161.863a2.44 2.44 0 0 0-1.825.825l-5.076-3.166a2.455 2.455 0 1 0-2.261 1.496 2.44 2.44 0 0 0 1.803-.8l5.087 3.174a2.44 2.44 0 0 0-.184.926 2.456 2.456 0 1 0 2.456-2.455M108.349 133.714a2.314 2.314 0 0 0-2.269 1.859l-8.761-.151a5.216 5.216 0 0 0-10.422.327 5.22 5.22 0 0 0 10.413.506l8.762.151a2.31 2.31 0 0 0 4.592-.377 2.314 2.314 0 0 0-2.315-2.315M60.315 77.011a5.22 5.22 0 0 0-5.22 5.22c0 1.383.542 2.636 1.42 3.57l-4.8 5.294a7.85 7.85 0 0 0-12.84 6.059 7.85 7.85 0 0 0 14.334 4.423l2.98 1.809c-.039.138-.067.28-.067.431a1.588 1.588 0 1 0 1.588-1.588 1.58 1.58 0 0 0-1.094.441l-2.974-1.805a7.819 7.819 0 0 0 .932-3.711 7.82 7.82 0 0 0-2.247-5.494l4.805-5.299a5.192 5.192 0 0 0 3.183 1.088 5.22 5.22 0 0 0 0-10.438M131.609 151.153a2.655 2.655 0 0 0-2.656 2.655c0 .145.021.283.043.421l-2.433.799a3.61 3.61 0 0 0-3.273-2.099 3.591 3.591 0 0 0-2.726 1.264l-3.916-2.657a3.585 3.585 0 0 0 .423-1.664 3.617 3.617 0 1 0-3.617 3.617 3.591 3.591 0 0 0 2.726-1.264l3.916 2.657a3.583 3.583 0 0 0-.423 1.665 3.617 3.617 0 1 0 7.161-.73l2.424-.797a2.648 2.648 0 0 0 2.351 1.445 2.657 2.657 0 0 0 0-5.312"/><path fill="#8fc740" d="M119.179 47.189a8.23 8.23 0 1 1-16.457 0 8.23 8.23 0 0 1 16.457 0M126.323 33.447a5.22 5.22 0 1 1-10.44 0 5.22 5.22 0 0 1 10.44 0M144.334 49.326a5.219 5.219 0 1 1-10.438 0 5.22 5.22 0 1 1 10.438 0M105.895 64.773a2.316 2.316 0 1 1-4.631-.001 2.316 2.316 0 0 1 4.631.001M144.887 68.305a2.316 2.316 0 1 1-4.631-.001 2.316 2.316 0 0 1 4.631.001M108.215 84.47a1.588 1.588 0 1 1-3.174 0 1.588 1.588 0 0 1 3.173 0M131.804 86.277a1.588 1.588 0 1 1-3.176 0 1.588 1.588 0 0 1 3.176 0M111.064 67.555a1.588 1.588 0 1 1-3.176 0 1.588 1.588 0 0 1 3.176 0M100.408 50.533a1.588 1.588 0 1 1-3.176 0 1.588 1.588 0 0 1 3.176 0M146.083 86.947a1.588 1.588 0 1 1-3.176 0 1.588 1.588 0 0 1 3.176 0M151.941 75.181a1.588 1.588 0 1 1-3.176 0 1.588 1.588 0 0 1 3.176 0M136.528 74.195a1.588 1.588 0 1 1-3.176 0 1.588 1.588 0 0 1 3.176 0M154.95 82.405a2.455 2.455 0 1 1-4.91 0 2.455 2.455 0 0 1 4.91 0"/><path fill="#8fc740" d="M127.901 52.235a2.315 2.315 0 0 0-2.315 2.315c0 .014.004.027.004.04l-16.545 3.474a2.312 2.312 0 0 0-4.462.858 2.315 2.315 0 0 0 4.631 0c0-.014-.004-.027-.004-.041l16.546-3.474c.121.3.298.571.525.794l-1.991 2.941a5.219 5.219 0 1 0-2.57 9.76 5.22 5.22 0 0 0 5.22-5.22 5.207 5.207 0 0 0-1.96-4.072l1.991-2.942a2.31 2.31 0 0 0 3.245-2.118 2.314 2.314 0 0 0-2.315-2.315"/><path fill="#8fc740" d="M150.471 50.692a7.849 7.849 0 1 0-2.945 15.124l-3.381 9.729a3.538 3.538 0 0 0-.782-.092c-.447 0-.871.092-1.266.242l-4.31-8.332a5.21 5.21 0 0 0 2.477-4.435 5.219 5.219 0 1 0-10.438 0c0 1.755.868 3.304 2.196 4.25l-2.508 4.198a2.29 2.29 0 0 0-.835-.162 2.316 2.316 0 0 0-2.315 2.316c0 .704.321 1.327.817 1.752l-2.487 4.164a5.18 5.18 0 0 0-2.307-.544 5.22 5.22 0 1 0 5.219 5.22 5.206 5.206 0 0 0-2.197-4.249l2.492-4.172c.244.088.504.143.778.143a2.314 2.314 0 0 0 2.315-2.314c0-.684-.301-1.292-.772-1.715l2.515-4.211a5.187 5.187 0 0 0 4.346.13l4.303 8.319a3.556 3.556 0 1 0 5.532 2.954 3.545 3.545 0 0 0-2.025-3.196l3.38-9.737a7.818 7.818 0 0 0 2.198.318 7.85 7.85 0 1 0 0-15.7M153.26 37.125a5.215 5.215 0 0 0-4.897 3.428l-4.608-1.278c.005-.067.02-.131.02-.199 0-.358-.088-.692-.232-.994l6.399-4.572c.421.44 1.011.717 1.669.717a2.316 2.316 0 1 0-2.132-1.411l-6.423 4.589a2.303 2.303 0 0 0-1.596-.645 2.315 2.315 0 0 0 0 4.631c.917 0 1.702-.538 2.077-1.311l4.6 1.275a5.219 5.219 0 0 0 5.123 6.208 5.22 5.22 0 1 0 0-10.438"/><path fill="#0c9548" d="M94.553 52.882a5.22 5.22 0 1 1-10.439-.001 5.22 5.22 0 0 1 10.439.001M90.41 20.907a3.387 3.387 0 1 1-6.774 0 3.387 3.387 0 0 1 6.774 0M163.24 31.986a3.387 3.387 0 1 1-6.774 0 3.387 3.387 0 0 1 6.774 0M142.66 108.865a3.556 3.556 0 1 1-7.111 0 3.556 3.556 0 0 1 7.111 0M81.74 49.575a2.315 2.315 0 1 1-4.63 0 2.315 2.315 0 0 1 4.63 0M67.495 50.533a2.316 2.316 0 1 1-4.631-.001 2.316 2.316 0 0 1 4.631.001M114.093 35.092a2.315 2.315 0 1 1-4.63 0 2.315 2.315 0 0 1 4.63 0M100.5 32.135a2.314 2.314 0 1 1-4.629.001 2.314 2.314 0 0 1 4.629-.001M116.17 27.834a2.314 2.314 0 1 1-4.629.001 2.314 2.314 0 0 1 4.629-.001M82.78 56.867a2.316 2.316 0 1 1-4.631-.001 2.316 2.316 0 0 1 4.631.001M88.35 61.948a2.315 2.315 0 1 1-4.63 0 2.315 2.315 0 0 1 4.63 0M94.493 65.746a2.314 2.314 0 1 1-4.629.001 2.314 2.314 0 0 1 4.629-.001M154.81 91.091a2.315 2.315 0 1 1-4.63 0 2.315 2.315 0 0 1 4.63 0M157.125 98.091a2.316 2.316 0 1 1-4.631-.001 2.316 2.316 0 0 1 4.631.001M155.414 106.809a2.315 2.315 0 1 1-4.63 0 2.315 2.315 0 0 1 4.63 0M89.755 89.538a1.588 1.588 0 1 1-3.176 0 1.588 1.588 0 0 1 3.176 0M168.2 34.45a1.588 1.588 0 1 1-3.176 0 1.588 1.588 0 0 1 3.176 0M100.655 25.716a1.589 1.589 0 1 1-3.175-.001 1.589 1.589 0 0 1 3.174.001M122.072 25.194a1.588 1.588 0 1 1-3.176 0 1.588 1.588 0 0 1 3.176 0M83.699 37.749a1.588 1.588 0 1 1-3.176 0 1.588 1.588 0 0 1 3.176 0M150.807 97.903a1.587 1.587 0 1 1-3.174.002 1.587 1.587 0 0 1 3.174-.002M138.536 135.72a2.314 2.314 0 1 1-4.629.001 2.314 2.314 0 0 1 4.629-.001M100.619 108.486a2.315 2.315 0 1 1-4.63-.002 2.315 2.315 0 0 1 4.63.002M103.74 101.899a2.316 2.316 0 1 1-4.631-.001 2.316 2.316 0 0 1 4.631.001M122.493 104.495a2.314 2.314 0 1 1-4.628 0 2.314 2.314 0 0 1 4.628 0M120.236 15.882a2.456 2.456 0 1 1-4.911-.001 2.456 2.456 0 0 1 4.911.001M164.878 39.833a2.457 2.457 0 1 1-4.913-.001 2.457 2.457 0 0 1 4.913.001M153.383 25.194a2.456 2.456 0 1 1-4.911 0 2.456 2.456 0 0 1 4.911 0M139.371 16.164a2.456 2.456 0 1 1-4.911 0 2.456 2.456 0 0 1 4.911 0"/><path fill="#0c9548" d="M98.82 68.422c-.13 0-.256.013-.384.02l-.678-6.609a2.31 2.31 0 0 0-.586-4.546 2.314 2.314 0 0 0-2.315 2.315c0 1.195.908 2.167 2.07 2.291l.68 6.632c-3.758.584-6.637 3.825-6.637 7.747a7.85 7.85 0 1 0 7.85-7.85"/><path fill="#0c9548" d="M112.656 94.522c-.075 0-.145.018-.219.022l-.677-3.79a2.31 2.31 0 0 0 1.506-2.162c0-1.1-.769-2.017-1.798-2.253l.271-6.135c1.875-.135 3.359-1.682 3.359-3.591a3.617 3.617 0 1 0-7.234 0 3.609 3.609 0 0 0 3.042 3.559l-.271 6.137a2.307 2.307 0 0 0-1.999 2.283 2.315 2.315 0 0 0 2.305 2.315l.676 3.785a3.604 3.604 0 0 0-2.579 3.447 3.617 3.617 0 1 0 3.618-3.617M148.692 109.95a7.78 7.78 0 0 0-.995.07l-.554-3.04c1.501-.44 2.605-1.812 2.605-3.456a3.617 3.617 0 1 0-3.618 3.617c.066 0 .127-.016.192-.019l.556 3.048c-3.46.819-6.036 3.921-6.036 7.631a7.85 7.85 0 0 0 7.85 7.849 7.85 7.85 0 1 0 0-15.7M100.405 93.461c-.356 0-.69.087-.992.231l-3.721-5.147c.398-.416.645-.977.645-1.598a2.314 2.314 0 1 0-4.63 0 2.315 2.315 0 0 0 2.315 2.316c.357 0 .691-.088.992-.232l3.722 5.147a2.302 2.302 0 0 0-.646 1.597 2.315 2.315 0 1 0 2.315-2.314M136.53 87.598a7.85 7.85 0 0 0-7.85 7.851c0 .101.011.2.015.301l-5.574.513a2.31 2.31 0 0 0-4.55.574 2.309 2.309 0 1 0 4.605.258l5.595-.515c.55 3.797 3.809 6.718 7.759 6.718a7.85 7.85 0 1 0 0-15.7M128.315 102.658a3.555 3.555 0 0 0-3.555 3.555c0 .591.157 1.138.412 1.629l-8.446 5.726a5.22 5.22 0 1 0 .467.69l8.446-5.727a3.532 3.532 0 0 0 2.676 1.237 3.555 3.555 0 1 0 0-7.11M103.258 109.416a2.315 2.315 0 0 0-2.315 2.315c0 .242.047.47.115.688l-2.96 1.591a2.295 2.295 0 0 0-1.76-.828 2.314 2.314 0 1 0 2.315 2.315 2.3 2.3 0 0 0-.14-.766l2.933-1.575a2.303 2.303 0 0 0 1.812.891 2.315 2.315 0 0 0 0-4.631M143.155 17.243a3.617 3.617 0 0 0-3.617 3.617c0 1.269.655 2.382 1.644 3.027l-1.631 3.276a3.35 3.35 0 0 0-1.119-.205 3.379 3.379 0 0 0-3.338 2.898l-2.849-.084a2.45 2.45 0 0 0-4.875.361 2.456 2.456 0 0 0 2.456 2.455 2.452 2.452 0 0 0 2.407-1.982l2.847.084a3.36 3.36 0 0 0 1.125 2.189l-5.207 7.654a3.643 3.643 0 0 0-1.655-.409 3.69 3.69 0 1 0 3.691 3.69 3.668 3.668 0 0 0-1.339-2.822l5.199-7.645c.464.238.981.386 1.538.386a3.388 3.388 0 0 0 3.388-3.387 3.382 3.382 0 0 0-1.518-2.822l1.629-3.273c.384.138.792.226 1.223.226a3.617 3.617 0 1 0 0-7.234M128.356 14.948a5.22 5.22 0 0 0-5.22 5.219c0 .057.007.112.009.169l-10.407 1.173a3.38 3.38 0 0 0-6.663.819 3.388 3.388 0 0 0 6.774.006l10.385-1.17a5.218 5.218 0 1 0 5.122-6.216M85.569 93.661c-.441 0-.87.045-1.291.114l-1.179-5.312a2.316 2.316 0 0 0 1.415-2.133 2.31 2.31 0 0 0-1.265-2.053l1.961-6.546c.118.019.236.036.359.036a2.315 2.315 0 1 0-2.315-2.314c0 .859.474 1.601 1.169 2l-1.974 6.587c-.083-.01-.165-.025-.251-.025a2.315 2.315 0 0 0 0 4.629c.03 0 .057-.006.086-.007l1.181 5.317c-3.313.921-5.746 3.951-5.746 7.557a7.85 7.85 0 1 0 7.85-7.85M121.161 73.536a2.314 2.314 0 1 1-4.629.001 2.314 2.314 0 0 1 4.629-.001M139.144 82.546a2.316 2.316 0 1 1-4.631-.001 2.316 2.316 0 0 1 4.631.001M124.07 45.752a1.588 1.588 0 1 1-3.176-.002 1.588 1.588 0 0 1 3.176.002M159.945 49.675a1.588 1.588 0 1 1-3.176 0 1.588 1.588 0 0 1 3.176 0"/></g></svg>