<svg xmlns="http://www.w3.org/2000/svg" fill-rule="evenodd" stroke-linejoin="round" stroke-miterlimit="2" clip-rule="evenodd" viewBox="0 0 726 717"><path fill="none" d="M0 0h726v717H0z"/><clipPath id="a"><path d="M0 0h726v717H0z"/></clipPath><g fill-rule="nonzero" clip-path="url(#a)"><path fill="#0e6938" d="M389.108 129.756c0 12.008-9.738 21.746-21.746 21.746-12.012 0-21.75-9.738-21.75-21.746 0-12.013 9.738-21.75 21.75-21.75 12.008 0 21.746 9.737 21.746 21.75M418.136 172.501c0 10.012-8.116 18.133-18.133 18.133-10.013 0-18.129-8.121-18.129-18.133 0-10.013 8.116-18.134 18.129-18.134 10.017 0 18.133 8.121 18.133 18.134M300.383 306.139c0 10.013-8.116 18.133-18.133 18.133-10.012 0-18.129-8.12-18.129-18.133 0-10.012 8.117-18.133 18.129-18.133 10.017 0 18.133 8.121 18.133 18.133M587.625 14.112c0 7.796-6.317 14.113-14.112 14.113-7.792 0-14.113-6.317-14.113-14.113C559.4 6.317 565.721 0 573.513 0c7.795 0 14.112 6.317 14.112 14.112M507.801 29.585c0 7.796-6.321 14.112-14.113 14.112-7.796 0-14.112-6.316-14.112-14.112s6.317-14.113 14.112-14.113c7.792 0 14.113 6.317 14.113 14.113M186.705 299.434c0 12.012-9.737 21.75-21.75 21.75-12.008 0-21.745-9.738-21.745-21.75 0-12.013 9.737-21.746 21.745-21.746 12.013 0 21.75 9.733 21.75 21.746M244.172 472.354c0 12.013-9.737 21.75-21.746 21.75-12.012 0-21.75-9.737-21.75-21.75 0-12.008 9.738-21.746 21.75-21.746 12.009 0 21.746 9.738 21.746 21.746M569.184 598.905c0 10.82-8.771 19.591-19.596 19.591-10.82 0-19.595-8.771-19.595-19.591 0-10.825 8.775-19.596 19.595-19.596 10.825 0 19.596 8.771 19.596 19.596M500.81 565.502c0 8.992-7.291 16.283-16.283 16.283s-16.283-7.291-16.283-16.283 7.291-16.283 16.283-16.283 16.283 7.291 16.283 16.283M476.808 594.083c0 6.112-4.955 11.067-11.067 11.067-6.113 0-11.067-4.955-11.067-11.067 0-6.113 4.954-11.067 11.067-11.067 6.112 0 11.067 4.954 11.067 11.067M429.208 584.7c0 6.112-4.954 11.066-11.067 11.066-6.112 0-11.066-4.954-11.066-11.066 0-6.113 4.954-11.067 11.066-11.067 6.113 0 11.067 4.954 11.067 11.067M336.673 328.169c0 6.112-4.955 11.066-11.067 11.066-6.113 0-11.067-4.954-11.067-11.066 0-6.113 4.954-11.067 11.067-11.067 6.112 0 11.067 4.954 11.067 11.067M266.041 261.158c0 5.325-4.321 9.646-9.646 9.646-5.329 0-9.646-4.321-9.646-9.646a9.644 9.644 0 0 1 9.646-9.646c5.325 0 9.646 4.317 9.646 9.646M259.75 291.855c0 5.329-4.321 9.646-9.646 9.646a9.644 9.644 0 0 1-9.646-9.646 9.644 9.644 0 0 1 9.646-9.646c5.325 0 9.646 4.317 9.646 9.646M366.181 183.937c0 5.329-4.321 9.645-9.646 9.645a9.642 9.642 0 0 1-9.645-9.645 9.642 9.642 0 0 1 9.645-9.646c5.325 0 9.646 4.316 9.646 9.646M232.773 166.792c0 5.329-4.321 9.646-9.646 9.646a9.644 9.644 0 0 1-9.646-9.646 9.644 9.644 0 0 1 9.646-9.646c5.325 0 9.646 4.317 9.646 9.646M327.992 385.387c0 5.325-4.321 9.646-9.646 9.646-5.329 0-9.646-4.321-9.646-9.646 0-5.325 4.317-9.645 9.646-9.645 5.325 0 9.646 4.32 9.646 9.645M458.06 62.7c0 5.325-4.321 9.646-9.646 9.646-5.329 0-9.646-4.321-9.646-9.646a9.643 9.643 0 0 1 9.646-9.645c5.325 0 9.646 4.316 9.646 9.645M415.707 38.221c0 5.329-4.321 9.646-9.646 9.646a9.644 9.644 0 0 1-9.646-9.646c0-5.325 4.317-9.646 9.646-9.646 5.325 0 9.646 4.321 9.646 9.646M521.632 48.577c0 5.325-4.321 9.646-9.646 9.646-5.329 0-9.646-4.321-9.646-9.646a9.644 9.644 0 0 1 9.646-9.646c5.325 0 9.646 4.317 9.646 9.646M671.851 518.53c0 5.325-4.321 9.641-9.646 9.641-5.329 0-9.645-4.316-9.645-9.641a9.642 9.642 0 0 1 9.645-9.646c5.325 0 9.646 4.316 9.646 9.646M437.314 543.025c0 5.329-4.321 9.646-9.646 9.646a9.644 9.644 0 0 1-9.646-9.646c0-5.325 4.317-9.642 9.646-9.642 5.325 0 9.646 4.317 9.646 9.642M462.765 523.075a6.617 6.617 0 1 1-13.233-.001 6.617 6.617 0 0 1 13.233.001M524.348 18.291a6.618 6.618 0 1 1-13.235-.001 6.618 6.618 0 0 1 13.235.001M426.112 67.352a6.617 6.617 0 0 1-6.617 6.616 6.612 6.612 0 0 1-6.612-6.616 6.613 6.613 0 0 1 6.612-6.617 6.617 6.617 0 0 1 6.617 6.617M317.284 358.577a6.617 6.617 0 1 1-13.233-.001 6.617 6.617 0 0 1 13.233.001M441.187 153.169a6.616 6.616 0 0 1-13.233 0 6.617 6.617 0 1 1 13.233 0M290.742 81.363a6.618 6.618 0 1 1-13.235-.001 6.618 6.618 0 0 1 13.235.001M332.838 126.488a6.618 6.618 0 1 1-13.235-.001 6.618 6.618 0 0 1 13.235.001M310.475 221.469a6.618 6.618 0 0 1-13.234 0 6.613 6.613 0 0 1 6.617-6.612 6.613 6.613 0 0 1 6.617 6.612M187.275 256.788a6.618 6.618 0 0 1-6.617 6.617 6.613 6.613 0 0 1-6.612-6.617 6.612 6.612 0 0 1 6.612-6.612 6.616 6.616 0 0 1 6.617 6.612M210.987 301.502a6.616 6.616 0 0 1-6.617 6.613 6.616 6.616 0 0 1-6.616-6.613 6.616 6.616 0 1 1 13.233 0M330.643 302.337a6.614 6.614 0 0 1-6.617 6.612 6.61 6.61 0 0 1-6.613-6.612 6.614 6.614 0 0 1 6.613-6.617 6.616 6.616 0 0 1 6.616 6.617M275.817 435.253a6.618 6.618 0 0 1-6.617 6.617 6.616 6.616 0 0 1-6.612-6.617 6.616 6.616 0 0 1 6.612-6.617 6.618 6.618 0 0 1 6.617 6.617M13.233 431.351a6.616 6.616 0 1 1-6.616-6.617 6.617 6.617 0 0 1 6.616 6.617M127.294 426.09a6.615 6.615 0 0 1-13.229 0 6.615 6.615 0 1 1 13.229 0M394.18 58.373a6.613 6.613 0 0 1-6.617 6.613 6.613 6.613 0 0 1-6.616-6.613 6.616 6.616 0 1 1 13.233 0M378.84 525.024a6.613 6.613 0 0 1-6.613 6.616 6.617 6.617 0 0 1 0-13.233 6.614 6.614 0 0 1 6.613 6.617M394.18 600.435a6.616 6.616 0 0 1-13.233 0 6.616 6.616 0 1 1 13.233 0M586.217 531.221a6.612 6.612 0 0 1-6.612 6.616 6.616 6.616 0 1 1 0-13.233 6.613 6.613 0 0 1 6.612 6.617M596.75 593.737a6.618 6.618 0 0 1-6.617 6.617 6.617 6.617 0 0 1-6.613-6.617 6.617 6.617 0 0 1 6.613-6.617 6.618 6.618 0 0 1 6.617 6.617M703.893 516.255a6.617 6.617 0 0 1-6.613 6.617 6.617 6.617 0 0 1 0-13.234 6.617 6.617 0 0 1 6.613 6.617M671.359 490.88a6.613 6.613 0 0 1-6.612 6.617 6.617 6.617 0 0 1-6.617-6.617 6.616 6.616 0 0 1 6.617-6.612 6.612 6.612 0 0 1 6.612 6.612M438.807 500.528c0 5.329-4.321 9.646-9.646 9.646a9.644 9.644 0 0 1-9.646-9.646c0-5.325 4.317-9.646 9.646-9.646 5.325 0 9.646 4.321 9.646 9.646M395.171 460.347c0 5.325-4.321 9.645-9.646 9.645-5.329 0-9.646-4.32-9.646-9.645a9.643 9.643 0 0 1 9.646-9.646c5.325 0 9.646 4.316 9.646 9.646M459.18 439.192c0 5.325-4.32 9.646-9.645 9.646-5.33 0-9.646-4.321-9.646-9.646a9.643 9.643 0 0 1 9.646-9.646c5.325 0 9.645 4.317 9.645 9.646M223.664 338.671c0 5.325-4.321 9.642-9.646 9.642-5.329 0-9.645-4.317-9.645-9.642a9.643 9.643 0 0 1 9.645-9.646c5.325 0 9.646 4.317 9.646 9.646M183.672 343.35a9.643 9.643 0 0 1-9.646 9.646 9.643 9.643 0 0 1-9.646-9.646c0-5.325 4.317-9.641 9.646-9.641 5.329 0 9.646 4.316 9.646 9.641M158.173 422.96c0 5.325-4.321 9.646-9.646 9.646-5.329 0-9.645-4.321-9.645-9.646 0-5.325 4.316-9.645 9.645-9.645 5.325 0 9.646 4.32 9.646 9.645M44.19 419.449c0 6.779-5.492 12.271-12.271 12.271-6.779 0-12.271-5.492-12.271-12.271 0-6.775 5.492-12.271 12.271-12.271 6.779 0 12.271 5.496 12.271 12.271M225.458 251.295c0 6.779-5.495 12.271-12.27 12.271-6.78 0-12.275-5.492-12.275-12.271 0-6.775 5.495-12.271 12.275-12.271 6.775 0 12.27 5.496 12.27 12.271M724.384 130.323c0 5.65-4.583 10.229-10.233 10.229s-10.229-4.579-10.229-10.229c0-5.65 4.579-10.233 10.229-10.233 5.65 0 10.233 4.583 10.233 10.233M448.996 122.11c0 5.65-4.579 10.229-10.229 10.229-5.65 0-10.229-4.579-10.229-10.229 0-5.65 4.579-10.233 10.229-10.233 5.65 0 10.229 4.583 10.229 10.233M409.526 84.032c0 5.65-4.579 10.23-10.229 10.23-5.65 0-10.233-4.58-10.233-10.23s4.583-10.229 10.233-10.229 10.229 4.579 10.229 10.229M676.283 52.996c0 5.65-4.58 10.233-10.23 10.233s-10.229-4.583-10.229-10.233 4.579-10.229 10.229-10.229c5.65 0 10.23 4.579 10.23 10.229M359.657 58.237c0 5.65-4.579 10.229-10.229 10.229-5.65 0-10.23-4.579-10.23-10.229 0-5.65 4.58-10.229 10.23-10.229s10.229 4.579 10.229 10.229M320.348 48.583c0 5.65-4.579 10.229-10.229 10.229-5.65 0-10.234-4.579-10.234-10.229 0-5.65 4.584-10.233 10.234-10.233s10.229 4.583 10.229 10.233M540.67 500.528c0 12.013-9.737 21.75-21.745 21.75-12.013 0-21.75-9.737-21.75-21.75 0-12.012 9.737-21.746 21.75-21.746 12.008 0 21.745 9.734 21.745 21.746M414.81 517.117c0 7.796-6.317 14.113-14.112 14.113-7.796 0-14.113-6.317-14.113-14.113 0-7.795 6.317-14.112 14.113-14.112 7.795 0 14.112 6.317 14.112 14.112"/><path fill="#0e6938" d="M350.699 275.442c-3.296 0-6.196 1.659-7.938 4.18l-18.362-8.246a21.627 21.627 0 0 0 1.208-7.096c0-12.013-9.737-21.746-21.75-21.746-6.229 0-11.837 2.633-15.8 6.833l-36.162-29.066a21.67 21.67 0 0 0 3.766-12.238c0-12.008-9.733-21.746-21.746-21.746-12.008 0-21.745 9.738-21.745 21.746 0 12.013 9.737 21.75 21.745 21.75 6.225 0 11.825-2.629 15.788-6.816l36.162 29.066a21.673 21.673 0 0 0-3.754 12.217c0 12.012 9.738 21.746 21.746 21.746 8.292 0 15.492-4.638 19.163-11.459l18.337 8.234a9.42 9.42 0 0 0-.304 2.287c0 5.329 4.317 9.65 9.646 9.65 5.329 0 9.646-4.321 9.646-9.65 0-5.325-4.317-9.646-9.646-9.646M689.594 479.438c-1.675 0-3.233.438-4.629 1.15l-6.025-8.037c2.996-2.754 4.9-6.671 4.9-11.059 0-8.325-6.746-15.07-15.071-15.07s-15.071 6.745-15.071 15.07c0 8.321 6.746 15.075 15.071 15.075 2.683 0 5.167-.762 7.35-1.991l6.054 8.083c-1.729 1.833-2.808 4.288-2.808 7.008 0 5.65 4.579 10.23 10.229 10.23 5.65 0 10.233-4.58 10.233-10.23s-4.583-10.229-10.233-10.229M684.685 68.969c-8.975 0-16.675 5.437-20 13.2l-10.354-3.479c.183-.909.283-1.846.283-2.813 0-7.792-6.321-14.112-14.112-14.112-7.796 0-14.113 6.32-14.113 14.112 0 7.796 6.317 14.113 14.113 14.113 5.6 0 10.4-3.292 12.679-8.021l10.421 3.496a21.614 21.614 0 0 0-.667 5.25c0 12.012 9.737 21.745 21.75 21.745 12.008 0 21.746-9.733 21.746-21.745 0-12.013-9.738-21.746-21.746-21.746M636.618 34.824c-5.65 0-10.229 4.579-10.229 10.229 0 .092.021.175.025.262l-20.421 4.067c-1.483-3.821-5.171-6.542-9.517-6.542-4.096 0-7.604 2.425-9.241 5.905l-42.171-11.521c.021-.279.083-.546.083-.829 0-5.65-4.583-10.23-10.233-10.23s-10.229 4.58-10.229 10.23 4.579 10.233 10.229 10.233c4.15 0 7.704-2.483 9.312-6.033l42.117 11.508c-.029.325-.096.633-.096.967 0 5.65 4.579 10.229 10.229 10.229 5.65 0 10.229-4.579 10.229-10.229 0-.096-.025-.188-.029-.284l20.417-4.066c1.479 3.833 5.171 6.562 9.525 6.562 5.65 0 10.229-4.579 10.229-10.229 0-5.65-4.579-10.229-10.229-10.229M466.34 30.985c-4.217 0-7.767 2.725-9.075 6.5l-13.546-2.084c-.125-5.221-4.375-9.416-9.625-9.416a9.643 9.643 0 0 0-9.646 9.645 9.643 9.643 0 0 0 9.646 9.646c4.204 0 7.746-2.704 9.067-6.458l13.558 2.087c.15 5.196 4.388 9.371 9.621 9.371a9.643 9.643 0 0 0 9.646-9.646c0-5.325-4.317-9.645-9.646-9.645M327.1 79.544l4.43-25.137c3.37-.305 6.025-3.105 6.025-6.555a6.617 6.617 0 0 0-13.234 0c0 2.65 1.567 4.917 3.817 5.975l-4.429 25.15c-.184-.008-.35-.054-.534-.054a14.05 14.05 0 0 0-7.82 2.371L289.35 50.307c4.005-3.942 6.492-9.421 6.492-15.484 0-12.012-9.737-21.75-21.75-21.75-12.008 0-21.746 9.738-21.746 21.75 0 8.971 5.434 16.671 13.188 19.992l-6.538 19.662c-.308-.029-.612-.091-.929-.091a9.643 9.643 0 0 0-9.646 9.646c0 3.5 1.879 6.533 4.667 8.225l-6.521 19.608a21.711 21.711 0 0 0-5.183-.646c-12.013 0-21.75 9.733-21.75 21.746 0 12.012 9.737 21.75 21.75 21.75 12.012 0 21.746-9.738 21.746-21.75 0-9-5.467-16.721-13.259-20.029l6.463-19.434a9.393 9.393 0 0 0 1.733.175c5.325 0 9.646-4.32 9.646-9.645 0-3.784-2.2-7.025-5.371-8.605l6.492-19.525c1.683.421 3.441.667 5.258.667 4.7 0 9.038-1.504 12.596-4.037l26.067 31.062c-2.271 2.504-3.692 5.796-3.692 9.442 0 7.791 6.317 14.112 14.112 14.112 7.796 0 14.113-6.321 14.113-14.112 0-6.425-4.317-11.784-10.188-13.492"/><path fill="#0e6938" d="M296.406 135.566l-.492-13.716c4.296-.975 7.504-4.8 7.504-9.388 0-5.325-4.32-9.646-9.645-9.646-5.33 0-9.646 4.321-9.646 9.646 0 4.875 3.625 8.863 8.321 9.513l.487 13.708c-16.7 1.475-29.804 15.479-29.804 32.562 0 18.067 14.646 32.709 32.708 32.709 18.067 0 32.708-14.642 32.708-32.709 0-17.87-14.341-32.37-32.141-32.679M298.096 418.314l-6.241-69.85c4.025-1.159 6.991-4.829 6.991-9.229 0-5.33-4.321-9.646-9.65-9.646a9.643 9.643 0 0 0-9.646 9.646c0 5.054 3.9 9.154 8.85 9.566l6.238 69.813a9.57 9.57 0 0 0-3.542 1.85l-11.716-9.992a21.613 21.613 0 0 0 4.17-12.767c0-12.012-9.737-21.75-21.75-21.75-12.008 0-21.745 9.738-21.745 21.75 0 12.009 9.737 21.742 21.745 21.742a21.65 21.65 0 0 0 15.421-6.417l11.7 9.98c-.841 1.433-1.362 3.079-1.362 4.862 0 5.325 4.321 9.646 9.65 9.646 5.325 0 9.646-4.321 9.646-9.646 0-5.021-3.855-9.104-8.759-9.558M375.878 488.052c-3.134 0-5.892 1.517-7.65 3.834l-41.05-20.754c.254-.867.433-1.763.433-2.713 0-5.325-4.317-9.646-9.646-9.646-4.867 0-8.85 3.617-9.512 8.3l-22.134.442c-.871-4.429-4.771-7.779-9.458-7.779-5.325 0-9.646 4.321-9.646 9.65 0 5.325 4.321 9.646 9.646 9.646 4.779 0 8.721-3.484 9.487-8.046l22.221-.446c.971 4.304 4.8 7.529 9.396 7.529 3.133 0 5.892-1.521 7.65-3.833l41.05 20.754c-.254.862-.433 1.762-.433 2.708 0 5.329 4.316 9.65 9.646 9.65 5.325 0 9.645-4.321 9.645-9.65 0-5.325-4.32-9.646-9.645-9.646M267.451 486.795c-11.546 0-20.959 9-21.679 20.367l-29.038.488c-.883-4.421-4.779-7.75-9.454-7.75a9.597 9.597 0 0 0-5.588 1.804l-19.65-19.146c1.905-2.404 3.088-5.4 3.088-8.708 0-7.796-6.317-14.113-14.113-14.113-7.795 0-14.112 6.317-14.112 14.113 0 7.795 6.317 14.112 14.112 14.112 3.234 0 6.175-1.129 8.559-2.962l19.683 19.183a9.613 9.613 0 0 0-1.629 5.362c0 5.325 4.321 9.642 9.65 9.642 4.787 0 8.729-3.492 9.483-8.067l29.046-.487c1.05 11.029 10.333 19.658 21.642 19.658 12.008 0 21.746-9.733 21.746-21.746 0-12.012-9.738-21.75-21.746-21.75M141.32 345.466c-12.013 0-21.75 9.738-21.75 21.75 0 5.892 2.354 11.225 6.158 15.142L98.386 413.52c-1.475-.912-3.196-1.466-5.058-1.466a9.584 9.584 0 0 0-6.675 2.708l-13.217-9.646c1.254-2.196 2.029-4.7 2.029-7.412 0-8.325-6.75-15.075-15.07-15.075-8.325 0-15.075 6.75-15.075 15.075 0 8.321 6.75 15.071 15.075 15.071 4.404 0 8.333-1.925 11.087-4.938l13.213 9.638c-.63 1.283-1.013 2.708-1.013 4.229 0 5.325 4.321 9.646 9.646 9.646 5.329 0 9.646-4.321 9.646-9.646 0-2.209-.771-4.221-2.021-5.846l27.387-31.221a21.63 21.63 0 0 0 12.98 4.321c12.008 0 21.745-9.729 21.745-21.742 0-12.012-9.737-21.75-21.745-21.75M564.531 488.382c-8.325 0-15.075 6.75-15.075 15.075 0 5.338 2.8 10.008 6.988 12.683l-6.592 13.584c-1.429-.488-2.937-.809-4.529-.809-6.971 0-12.729 5.063-13.871 11.709l-13.671-.446c-.716-4.625-4.679-8.167-9.5-8.167-5.325 0-9.646 4.317-9.646 9.642 0 5.329 4.321 9.65 9.646 9.65 4.646 0 8.517-3.283 9.438-7.65l13.6.442a14.002 14.002 0 0 0 4.708 9.475l-22.242 32.583c-2.108-1.125-4.479-1.821-7.037-1.821-8.321 0-15.071 6.746-15.071 15.075 0 8.325 6.75 15.071 15.071 15.071 8.325 0 15.075-6.746 15.075-15.071 0-4.517-2.029-8.525-5.175-11.287l22.25-32.596c1.933 1 4.1 1.616 6.425 1.616 7.796 0 14.112-6.32 14.112-14.116 0-4.959-2.57-9.304-6.445-11.821l6.591-13.575c1.559.542 3.204.9 4.95.9 8.325 0 15.071-6.75 15.071-15.071 0-8.325-6.746-15.075-15.071-15.075M621.75 618.387c7.533 0 13.641-6.108 13.641-13.642 0-7.537-6.108-13.645-13.641-13.645-.692 0-1.355.108-2.013.204l-6.175-21.717c7.413-2.792 12.713-9.896 12.713-18.287 0-10.817-8.775-19.592-19.596-19.592s-19.592 8.775-19.592 19.592c0 10.825 8.771 19.6 19.592 19.6 1.216 0 2.391-.15 3.541-.359l6.159 21.667c-4.863 2.083-8.271 6.908-8.271 12.537 0 5.6 3.383 10.405 8.208 12.505l-5.129 18.404c-.6-.084-1.192-.179-1.812-.179-7.255 0-13.142 5.883-13.142 13.137 0 7.258 5.887 13.142 13.142 13.142 7.258 0 13.145-5.884 13.145-13.142 0-5.421-3.287-10.071-7.975-12.079l5.121-18.358c.684.108 1.371.212 2.084.212M451.455 557.14c-4.679 0-8.575 3.33-9.454 7.746l-36.504-.629c-.708-11.371-10.125-20.387-21.679-20.387-12.008 0-21.746 9.737-21.746 21.75 0 12.012 9.738 21.75 21.746 21.75 11.3 0 20.583-8.621 21.642-19.642l36.508.629c.754 4.575 4.7 8.075 9.487 8.075a9.643 9.643 0 0 0 9.646-9.646 9.643 9.643 0 0 0-9.646-9.646"/><path fill="#0e6938" d="M251.311 320.881c-12.013 0-21.75 9.738-21.75 21.75 0 5.763 2.258 10.984 5.917 14.875l-20 22.059a32.559 32.559 0 0 0-20.796-7.463c-18.063 0-32.704 14.646-32.704 32.708 0 18.067 14.641 32.709 32.704 32.709 11.229 0 21.125-5.659 27.021-14.279l12.416 7.537c-.162.575-.279 1.167-.279 1.796a6.618 6.618 0 1 0 6.617-6.617 6.58 6.58 0 0 0-4.559 1.838l-12.391-7.521a32.579 32.579 0 0 0 3.883-15.463c0-8.916-3.575-16.991-9.363-22.891l20.021-22.079c3.675 2.833 8.263 4.533 13.263 4.533 12.008 0 21.746-9.729 21.746-21.742 0-12.012-9.738-21.75-21.746-21.75"/><path fill="#8fc740" d="M496.581 196.622c0 18.938-15.35 34.288-34.288 34.288-18.933 0-34.287-15.35-34.287-34.288 0-18.937 15.354-34.287 34.287-34.287 18.938 0 34.288 15.35 34.288 34.287M526.345 139.361c0 12.012-9.737 21.75-21.745 21.75-12.013 0-21.75-9.738-21.75-21.75 0-12.009 9.737-21.746 21.75-21.746 12.008 0 21.745 9.737 21.745 21.746M601.39 205.527c0 12.008-9.733 21.746-21.745 21.746-12.013 0-21.746-9.738-21.746-21.746 0-12.012 9.733-21.75 21.746-21.75 12.012 0 21.745 9.738 21.745 21.75M441.228 269.888c0 5.325-4.321 9.646-9.646 9.646-5.329 0-9.646-4.321-9.646-9.646a9.644 9.644 0 0 1 9.646-9.646c5.325 0 9.646 4.317 9.646 9.646M603.698 284.604c0 5.325-4.321 9.646-9.646 9.646-5.329 0-9.646-4.321-9.646-9.646a9.644 9.644 0 0 1 9.646-9.646c5.325 0 9.646 4.317 9.646 9.646M450.894 351.96a6.617 6.617 0 1 1-13.234 0 6.617 6.617 0 0 1 13.234 0M549.183 359.488a6.618 6.618 0 1 1-13.235-.001 6.618 6.618 0 0 1 13.235.001M462.765 281.479a6.617 6.617 0 1 1-13.233 0 6.613 6.613 0 0 1 6.617-6.612 6.612 6.612 0 0 1 6.616 6.612M418.366 210.554a6.617 6.617 0 1 1-13.233 0 6.617 6.617 0 0 1 13.233 0M608.678 362.28a6.617 6.617 0 1 1-13.233-.001 6.617 6.617 0 0 1 13.233.001M633.088 313.256a6.617 6.617 0 0 1-13.233 0 6.613 6.613 0 0 1 6.616-6.613 6.614 6.614 0 0 1 6.617 6.613M568.865 309.146a6.618 6.618 0 1 1-13.235-.001 6.618 6.618 0 0 1 13.235.001M645.625 343.355c0 5.645-4.58 10.229-10.23 10.229s-10.233-4.584-10.233-10.229c0-5.65 4.583-10.234 10.233-10.234s10.23 4.584 10.23 10.234"/><path fill="#8fc740" d="M532.919 217.647c-5.325 0-9.646 4.316-9.646 9.645 0 .059.017.113.017.167l-68.937 14.475c-1.421-3.554-4.884-6.071-8.942-6.071-5.329 0-9.65 4.321-9.65 9.646 0 5.329 4.321 9.646 9.65 9.646 5.325 0 9.646-4.317 9.646-9.646 0-.058-.017-.112-.017-.171l68.942-14.475a9.721 9.721 0 0 0 2.187 3.309l-8.296 12.254a21.65 21.65 0 0 0-10.708-2.829c-12.008 0-21.746 9.733-21.746 21.745 0 12.013 9.738 21.75 21.746 21.75 12.013 0 21.75-9.737 21.75-21.75 0-6.866-3.196-12.983-8.167-16.966l8.296-12.259a9.622 9.622 0 0 0 3.875.821 9.643 9.643 0 0 0 9.646-9.646 9.643 9.643 0 0 0-9.646-9.645"/><path fill="#8fc740" d="M626.964 211.217c-18.062 0-32.708 14.646-32.708 32.709 0 13.725 8.458 25.45 20.437 30.308l-14.087 40.538a14.715 14.715 0 0 0-3.259-.384c-1.862 0-3.629.384-5.275 1.009l-17.958-34.717c6.188-3.833 10.321-10.667 10.321-18.479 0-12.009-9.733-21.746-21.746-21.746-12.008 0-21.746 9.737-21.746 21.746 0 7.312 3.617 13.766 9.15 17.708l-10.45 17.492a9.539 9.539 0 0 0-3.479-.675c-5.325 0-9.646 4.321-9.646 9.65 0 2.933 1.338 5.529 3.404 7.3l-10.362 17.35a21.575 21.575 0 0 0-9.613-2.267c-12.012 0-21.75 9.738-21.75 21.75 0 12.013 9.738 21.746 21.75 21.746 12.009 0 21.746-9.733 21.746-21.746 0-7.312-3.621-13.762-9.154-17.704l10.383-17.383c1.017.366 2.1.595 3.242.595 5.329 0 9.646-4.316 9.646-9.641 0-2.85-1.254-5.384-3.217-7.146l10.479-17.546a21.612 21.612 0 0 0 9.617 2.267c3.013 0 5.883-.617 8.492-1.725l17.929 34.662c-3.967 2.663-6.579 7.179-6.579 12.309 0 8.183 6.633 14.816 14.816 14.816 8.18 0 14.813-6.633 14.813-14.816 0-5.888-3.463-10.93-8.438-13.317l14.084-40.571a32.571 32.571 0 0 0 9.158 1.325c18.063 0 32.708-14.642 32.708-32.708 0-18.063-14.645-32.709-32.708-32.709M638.581 154.689c-9.383 0-17.358 5.954-20.404 14.283l-19.2-5.325c.021-.279.083-.546.083-.829 0-1.492-.366-2.883-.966-4.142l26.662-19.05c1.754 1.834 4.213 2.988 6.954 2.988 5.325 0 9.646-4.321 9.646-9.646 0-5.329-4.321-9.65-9.646-9.65-5.329 0-9.65 4.321-9.65 9.65 0 1.333.275 2.608.767 3.767l-26.762 19.12c-1.73-1.654-4.067-2.687-6.65-2.687-5.33 0-9.646 4.321-9.646 9.65 0 5.325 4.316 9.646 9.646 9.646 3.82 0 7.091-2.242 8.654-5.463l19.166 5.313a21.713 21.713 0 0 0-.4 4.121c0 12.012 9.738 21.745 21.746 21.745 12.013 0 21.75-9.733 21.75-21.745 0-12.013-9.737-21.746-21.75-21.746"/><path fill="#0c9548" d="M393.973 220.34c0 12.008-9.738 21.746-21.746 21.746-12.013 0-21.75-9.738-21.75-21.746 0-12.013 9.737-21.746 21.75-21.746 12.008 0 21.746 9.733 21.746 21.746M376.708 87.115c0 7.795-6.321 14.112-14.113 14.112-7.796 0-14.112-6.317-14.112-14.112 0-7.796 6.316-14.113 14.112-14.113 7.792 0 14.113 6.317 14.113 14.113M680.166 133.273c0 7.796-6.321 14.113-14.112 14.113-7.796 0-14.113-6.317-14.113-14.113 0-7.796 6.317-14.112 14.113-14.112 7.791 0 14.112 6.316 14.112 14.112M594.416 453.604c0 8.183-6.634 14.817-14.813 14.817-8.183 0-14.816-6.634-14.816-14.817 0-8.179 6.633-14.812 14.816-14.812 8.179 0 14.813 6.633 14.813 14.812M340.583 206.565c0 5.329-4.321 9.645-9.646 9.645a9.643 9.643 0 0 1-9.646-9.645 9.643 9.643 0 0 1 9.646-9.646c5.325 0 9.646 4.316 9.646 9.646M281.23 210.554c0 5.325-4.32 9.646-9.645 9.646-5.33 0-9.646-4.321-9.646-9.646a9.643 9.643 0 0 1 9.646-9.646c5.325 0 9.645 4.317 9.645 9.646M475.388 146.215c0 5.329-4.321 9.646-9.646 9.646a9.644 9.644 0 0 1-9.646-9.646c0-5.325 4.317-9.646 9.646-9.646 5.325 0 9.646 4.321 9.646 9.646M418.751 133.896a9.644 9.644 0 0 1-9.646 9.646 9.644 9.644 0 0 1-9.646-9.646c0-5.325 4.317-9.646 9.646-9.646 5.329 0 9.646 4.321 9.646 9.646M484.042 115.974a9.644 9.644 0 0 1-9.646 9.646 9.644 9.644 0 0 1-9.646-9.646 9.644 9.644 0 0 1 9.646-9.646 9.644 9.644 0 0 1 9.646 9.646M344.915 236.946c0 5.325-4.321 9.646-9.646 9.646-5.329 0-9.646-4.321-9.646-9.646a9.644 9.644 0 0 1 9.646-9.646c5.325 0 9.646 4.317 9.646 9.646M368.126 258.119c0 5.329-4.321 9.646-9.646 9.646a9.643 9.643 0 0 1-9.645-9.646 9.643 9.643 0 0 1 9.645-9.646c5.325 0 9.646 4.317 9.646 9.646M393.722 273.941a9.644 9.644 0 0 1-9.646 9.646 9.644 9.644 0 0 1-9.646-9.646c0-5.325 4.317-9.646 9.646-9.646 5.329 0 9.646 4.321 9.646 9.646M645.04 379.544c0 5.329-4.32 9.646-9.645 9.646a9.643 9.643 0 0 1-9.646-9.646c0-5.325 4.316-9.642 9.646-9.642 5.325 0 9.645 4.317 9.645 9.642M654.688 408.711c0 5.325-4.32 9.646-9.645 9.646-5.33 0-9.646-4.321-9.646-9.646 0-5.325 4.316-9.646 9.646-9.646 5.325 0 9.645 4.321 9.645 9.646M647.559 445.039c0 5.329-4.321 9.646-9.646 9.646a9.643 9.643 0 0 1-9.645-9.646c0-5.325 4.316-9.642 9.645-9.642 5.325 0 9.646 4.317 9.646 9.642M373.978 373.075a6.616 6.616 0 0 1-13.23 0 6.613 6.613 0 0 1 6.613-6.613 6.614 6.614 0 0 1 6.617 6.613M700.835 143.544a6.616 6.616 0 0 1-13.233 0 6.617 6.617 0 1 1 13.233 0M419.394 107.148a6.618 6.618 0 0 1-6.617 6.617 6.613 6.613 0 0 1-6.612-6.617 6.612 6.612 0 0 1 6.612-6.616 6.617 6.617 0 0 1 6.617 6.616M508.633 104.974a6.616 6.616 0 1 1-13.233 0 6.614 6.614 0 0 1 6.617-6.613 6.613 6.613 0 0 1 6.616 6.613M348.745 157.287a6.617 6.617 0 1 1-13.233-.001 6.617 6.617 0 0 1 13.233.001M628.364 407.93a6.613 6.613 0 0 1-6.613 6.616 6.616 6.616 0 1 1 0-13.233 6.614 6.614 0 0 1 6.613 6.617M577.233 565.502a9.644 9.644 0 0 1-9.646 9.646 9.644 9.644 0 0 1-9.646-9.646c0-5.325 4.317-9.642 9.646-9.642 5.329 0 9.646 4.317 9.646 9.642M419.247 452.025c0 5.325-4.321 9.642-9.646 9.642-5.329 0-9.646-4.317-9.646-9.642a9.643 9.643 0 0 1 9.646-9.645c5.325 0 9.646 4.316 9.646 9.645M432.252 424.58c0 5.325-4.321 9.646-9.646 9.646-5.329 0-9.65-4.321-9.65-9.646 0-5.325 4.321-9.646 9.65-9.646 5.325 0 9.646 4.321 9.646 9.646M510.389 435.395c0 5.325-4.317 9.642-9.646 9.642-5.329 0-9.646-4.317-9.646-9.642a9.643 9.643 0 0 1 9.646-9.645 9.643 9.643 0 0 1 9.646 9.645M500.983 66.175c0 5.65-4.583 10.23-10.233 10.23s-10.229-4.58-10.229-10.23 4.579-10.233 10.229-10.233c5.65 0 10.233 4.583 10.233 10.233M686.992 165.972c0 5.65-4.583 10.233-10.233 10.233s-10.229-4.583-10.229-10.233 4.579-10.229 10.229-10.229c5.65 0 10.233 4.579 10.233 10.229M639.096 104.974c0 5.65-4.579 10.233-10.229 10.233-5.65 0-10.229-4.583-10.229-10.233s4.579-10.229 10.229-10.229c5.65 0 10.229 4.579 10.229 10.229M580.712 67.352c0 5.65-4.579 10.233-10.229 10.233-5.65 0-10.234-4.583-10.234-10.233s4.584-10.23 10.234-10.23 10.229 4.58 10.229 10.23"/><path fill="#0c9548" d="M411.75 285.09c-.542 0-1.067.055-1.6.084l-2.825-27.538c4.138-1.087 7.204-4.816 7.204-9.296a9.642 9.642 0 0 0-9.646-9.645 9.642 9.642 0 0 0-9.645 9.645c0 4.98 3.783 9.03 8.625 9.546l2.833 27.634c-15.658 2.433-27.654 15.937-27.654 32.279 0 18.066 14.646 32.708 32.708 32.708 18.063 0 32.708-14.642 32.708-32.708 0-18.063-14.645-32.709-32.708-32.709M469.398 393.843c-.313 0-.604.075-.913.092l-2.82-15.792c3.658-1.371 6.275-4.871 6.275-9.008 0-4.584-3.205-8.405-7.492-9.388l1.129-25.562c7.813-.563 13.996-7.009 13.996-14.963 0-8.325-6.746-15.071-15.071-15.071-8.321 0-15.071 6.746-15.071 15.071 0 7.504 5.5 13.675 12.675 14.829l-1.129 25.571c-4.7.646-8.329 4.633-8.329 9.513 0 5.316 4.296 9.62 9.604 9.645l2.817 15.771c-6.2 1.867-10.746 7.554-10.746 14.363 0 8.325 6.75 15.071 15.075 15.071s15.071-6.746 15.071-15.071c0-8.321-6.746-15.071-15.071-15.071M619.548 458.125c-1.408 0-2.783.117-4.145.292l-2.309-12.667c6.254-1.833 10.854-7.55 10.854-14.4 0-8.325-6.745-15.071-15.075-15.071-8.321 0-15.071 6.746-15.071 15.071 0 8.321 6.75 15.071 15.071 15.071.275 0 .529-.067.8-.079l2.317 12.7c-14.417 3.412-25.15 16.337-25.15 31.795 0 18.063 14.646 32.705 32.708 32.705 18.063 0 32.709-14.642 32.709-32.705 0-18.066-14.646-32.712-32.709-32.712M418.354 389.42c-1.483 0-2.875.362-4.133.962l-15.504-21.446a9.598 9.598 0 0 0 2.687-6.658 9.643 9.643 0 0 0-9.646-9.646 9.643 9.643 0 0 0-9.645 9.646c0 5.329 4.316 9.65 9.645 9.65 1.488 0 2.88-.367 4.134-.967l15.508 21.446c-1.658 1.733-2.692 4.067-2.692 6.654 0 5.334 4.321 9.65 9.646 9.65a9.644 9.644 0 0 0 9.646-9.65c0-5.325-4.317-9.641-9.646-9.641M568.875 364.993c-18.062 0-32.708 14.646-32.708 32.713 0 .421.046.833.062 1.254l-23.225 2.137c-1.071-4.162-4.812-7.254-9.312-7.254-5.325 0-9.646 4.321-9.646 9.646 0 5.329 4.321 9.65 9.646 9.65 4.962 0 9-3.762 9.541-8.575l23.313-2.146c2.292 15.821 15.871 27.992 32.329 27.992 18.063 0 32.708-14.642 32.708-32.704 0-18.067-14.645-32.713-32.708-32.713M534.644 427.742c-8.179 0-14.812 6.633-14.812 14.812 0 2.463.654 4.742 1.716 6.788L486.357 473.2c-3.988-4.963-10.096-8.15-16.959-8.15-12.012 0-21.75 9.733-21.75 21.746 0 12.012 9.738 21.75 21.75 21.75 12.009 0 21.746-9.738 21.746-21.75 0-3.904-1.042-7.559-2.842-10.721l35.192-23.863c2.717 3.134 6.679 5.155 11.15 5.155 8.179 0 14.813-6.63 14.813-14.813 0-8.179-6.634-14.812-14.813-14.812M430.24 455.899c-5.33 0-9.646 4.321-9.646 9.646 0 1.008.196 1.958.479 2.867l-12.333 6.629c-1.767-2.096-4.38-3.45-7.334-3.45a9.643 9.643 0 0 0-9.646 9.646c0 5.325 4.317 9.645 9.646 9.645 5.325 0 9.646-4.32 9.646-9.645 0-1.121-.229-2.184-.583-3.192l12.221-6.563c1.766 2.242 4.475 3.713 7.55 3.713 5.329 0 9.645-4.321 9.645-9.65 0-5.325-4.316-9.646-9.645-9.646M596.477 71.846c-8.325 0-15.071 6.75-15.071 15.071 0 5.287 2.734 9.925 6.854 12.612l-6.795 13.65c-1.467-.516-3.017-.854-4.663-.854-7.096 0-12.912 5.258-13.908 12.075l-11.871-.35c-.733-4.929-4.946-8.725-10.079-8.725-5.65 0-10.234 4.579-10.234 10.229 0 5.65 4.584 10.229 10.234 10.229 4.975 0 9.112-3.554 10.029-8.258l11.862.35a14 14 0 0 0 4.688 9.121l-21.696 31.892c-2.079-1.055-4.4-1.705-6.896-1.705-8.491 0-15.375 6.884-15.375 15.375 0 8.496 6.884 15.38 15.375 15.38 8.496 0 15.379-6.884 15.379-15.38 0-4.745-2.2-8.937-5.579-11.758l21.663-31.854c1.933.992 4.087 1.608 6.408 1.608 7.796 0 14.117-6.321 14.117-14.112 0-4.913-2.517-9.229-6.325-11.759l6.787-13.637c1.6.575 3.3.942 5.096.942 8.325 0 15.071-6.746 15.071-15.071 0-8.321-6.746-15.071-15.071-15.071M534.817 62.285c-12.012 0-21.75 9.734-21.75 21.746 0 .238.029.467.038.704l-43.363 4.888c-1.533-6.138-7.037-10.7-13.65-10.7-7.792 0-14.112 6.317-14.112 14.112 0 7.792 6.32 14.113 14.112 14.113 7.788 0 14.1-6.304 14.113-14.088l43.27-4.875c1.938 10.021 10.75 17.592 21.342 17.592 12.008 0 21.746-9.733 21.746-21.746 0-12.012-9.738-21.746-21.746-21.746M356.535 390.254c-1.837 0-3.625.187-5.379.475l-4.912-22.134a9.649 9.649 0 0 0 5.896-8.887c0-3.746-2.159-6.954-5.271-8.554l8.171-27.275c.491.079.983.15 1.495.15 5.325 0 9.646-4.317 9.646-9.642 0-5.329-4.321-9.646-9.646-9.646a9.643 9.643 0 0 0-9.645 9.646c0 3.579 1.975 6.671 4.87 8.333l-8.225 27.446c-.345-.041-.687-.104-1.045-.104-5.325 0-9.646 4.317-9.646 9.646 0 5.325 4.321 9.642 9.646 9.642.125 0 .237-.025.358-.03l4.921 22.155c-13.804 3.837-23.942 16.462-23.942 31.487 0 18.067 14.646 32.708 32.708 32.708 18.063 0 32.709-14.641 32.709-32.708 0-18.062-14.646-32.708-32.709-32.708M504.839 306.4a9.643 9.643 0 0 1-9.646 9.645 9.643 9.643 0 0 1-9.646-9.645c0-5.325 4.317-9.646 9.646-9.646 5.329 0 9.646 4.321 9.646 9.646M579.768 343.94c0 5.325-4.321 9.646-9.646 9.646-5.33 0-9.646-4.321-9.646-9.646a9.645 9.645 0 0 1 9.646-9.645c5.325 0 9.645 4.32 9.645 9.645M516.958 190.632a6.617 6.617 0 0 1-13.233 0 6.617 6.617 0 0 1 13.233 0M666.438 206.98a6.617 6.617 0 0 1-6.617 6.616 6.613 6.613 0 0 1-6.613-6.616 6.614 6.614 0 0 1 6.613-6.617 6.617 6.617 0 0 1 6.617 6.617"/></g><path fill="#0e6938" fill-rule="nonzero" d="M590.262 620.755c0 5.329-4.321 9.646-9.646 9.646a9.644 9.644 0 0 1-9.646-9.646c0-5.325 4.317-9.642 9.646-9.642 5.325 0 9.646 4.317 9.646 9.642M446.013 620.137c0 5.325-4.321 9.645-9.646 9.645-5.329 0-9.646-4.32-9.646-9.645 0-5.325 4.317-9.646 9.646-9.646 5.325 0 9.646 4.321 9.646 9.646M397.211 624.466c0 5.325-4.321 9.646-9.646 9.646-5.329 0-9.65-4.321-9.65-9.646 0-5.329 4.321-9.646 9.65-9.646 5.325 0 9.646 4.317 9.646 9.646M418.203 625.085a6.617 6.617 0 1 1-13.233-.001 6.617 6.617 0 0 1 13.233.001M665.412 706.217c0 5.645-4.579 10.229-10.229 10.229-5.65 0-10.229-4.584-10.229-10.229 0-5.65 4.579-10.234 10.229-10.234 5.65 0 10.229 4.584 10.229 10.234M621.75 674.43c-3.034 0-5.73 1.341-7.605 3.437l-21.15-13.192c.521-1.229.809-2.579.809-3.995 0-5.65-4.579-10.23-10.229-10.23-5.65 0-10.23 4.58-10.23 10.23s4.58 10.229 10.23 10.229c2.979 0 5.641-1.296 7.512-3.334l21.196 13.225a10.157 10.157 0 0 0-.767 3.859c0 5.65 4.584 10.229 10.234 10.229s10.229-4.579 10.229-10.229c0-5.65-4.579-10.229-10.229-10.229M548.369 629.805c-6.112 0-11.067 4.95-11.067 11.062 0 .604.088 1.179.18 1.754l-10.138 3.329c-2.396-5.15-7.579-8.745-13.637-8.745-4.559 0-8.596 2.066-11.359 5.266L486.032 631.4c1.087-2.087 1.762-4.42 1.762-6.933 0-8.325-6.746-15.071-15.071-15.071s-15.07 6.746-15.07 15.071 6.745 15.071 15.07 15.071c4.559 0 8.596-2.067 11.359-5.267l16.316 11.071c-1.087 2.083-1.762 4.421-1.762 6.938 0 8.325 6.75 15.07 15.071 15.07 8.325 0 15.071-6.745 15.071-15.07 0-1.042-.105-2.063-.305-3.042l10.1-3.321c1.842 3.558 5.513 6.021 9.796 6.021 6.113 0 11.067-4.958 11.067-11.071 0-6.112-4.954-11.062-11.067-11.062"/></svg>