<svg xmlns="http://www.w3.org/2000/svg" fill-rule="evenodd" stroke-linejoin="round" stroke-miterlimit="2" clip-rule="evenodd" viewBox="0 0 1529 443"><path fill="none" d="M0 0h1528.12v442.863H0z"/><path fill="#0e6938" fill-rule="nonzero" d="M370.921 434.871h-55.959c-15.987 0-29.05-5.046-39.17-15.192-10.146-10.117-15.188-23.183-15.188-39.166V163.075c0-25.583-7.742-44.217-23.183-55.958-15.463-11.717-32.775-17.584-51.958-17.584-19.188 0-36.251 5.867-51.167 17.584-14.933 11.741-22.379 30.375-22.379 55.958v271.796H0V185.458C0 112.988 18.913 64.5 56.758 39.967 94.579 15.463 136.421 2.146 182.262 0c46.888 0 90.055 12.263 129.505 36.771 39.416 24.529 59.154 74.092 59.154 148.687v249.413zM800.356 9.592v249.413c0 75.691-19.733 125.25-59.154 148.683-39.45 23.458-82.617 35.175-129.504 35.175-45.842-2.15-87.683-14.913-125.504-38.371-37.846-23.433-56.759-71.946-56.759-145.487V9.592h111.917v271.796c0 25.579 7.446 44.237 22.379 55.958 14.917 11.738 31.979 17.584 51.167 17.584 19.183 0 36.496-5.846 51.958-17.584 15.442-11.721 23.184-30.379 23.184-55.958V63.95c0-14.912 5.041-27.704 15.187-38.375 10.121-10.637 23.188-15.983 39.171-15.983h55.958zM858.872 434.871V228.625c0-41.571 6.121-76.467 18.388-104.721 12.242-28.229 29.025-50.887 50.362-67.946 20.234-15.991 43.963-27.704 71.146-35.175 27.175-7.441 55.154-11.191 83.938-11.191h15.983v113.512h-36.771c-30.925 0-53.833 7.471-68.75 22.384-14.933 14.937-22.379 38.37-22.379 70.349v219.034H858.872zM1528.12 9.592v249.413c0 75.691-19.733 125.25-59.15 148.683-39.454 23.458-82.621 35.175-129.508 35.175-45.842-2.15-87.684-14.913-125.504-38.371-37.846-23.433-56.755-71.946-56.755-145.487V9.592h111.913v271.796c0 25.579 7.446 44.237 22.379 55.958 14.917 11.738 31.979 17.584 51.167 17.584 19.183 0 36.496-5.846 51.958-17.584 15.442-11.721 23.183-30.379 23.183-55.958V63.95c0-14.912 5.042-27.704 15.188-38.375 10.121-10.637 23.187-15.983 39.171-15.983h55.958z"/></svg>